<svg xmlns="http://www.w3.org/2000/svg" width="420" height="820" viewBox="0 0 420 820"><defs><linearGradient id="g-pink" x1="0" y1="0" x2="0" y2="1"><stop offset="0" stop-color="#ff8fa3"/><stop offset="0.55" stop-color="#ff4f6e"/><stop offset="1" stop-color="#ff4f6e"/></linearGradient><linearGradient id="g-orange" x1="0" y1="0" x2="0" y2="1"><stop offset="0" stop-color="#ffb347"/><stop offset="0.55" stop-color="#ff8a00"/><stop offset="1" stop-color="#ff8a00"/></linearGradient><linearGradient id="g-yellow" x1="0" y1="0" x2="0" y2="1"><stop offset="0" stop-color="#fff06a"/><stop offset="0.55" stop-color="#ffd000"/><stop offset="1" stop-color="#ffd000"/></linearGradient><linearGradient id="g-green" x1="0" y1="0" x2="0" y2="1"><stop offset="0" stop-color="#8af06a"/><stop offset="0.55" stop-color="#3cd62a"/><stop offset="1" stop-color="#3cd62a"/></linearGradient><linearGradient id="g-cyan" x1="0" y1="0" x2="0" y2="1"><stop offset="0" stop-color="#7fe3ff"/><stop offset="0.55" stop-color="#14b8f0"/><stop offset="1" stop-color="#14b8f0"/></linearGradient><linearGradient id="g-blue" x1="0" y1="0" x2="0" y2="1"><stop offset="0" stop-color="#9cb0ff"/><stop offset="0.55" stop-color="#5c7cff"/><stop offset="1" stop-color="#5c7cff"/></linearGradient><linearGradient id="g-purple" x1="0" y1="0" x2="0" y2="1"><stop offset="0" stop-color="#e29cff"/><stop offset="0.55" stop-color="#c055f0"/><stop offset="1" stop-color="#c055f0"/></linearGradient><pattern id="dots" width="4" height="4" patternUnits="userSpaceOnUse"><circle cx="2" cy="2" r="0.7" fill="#000000" opacity="0.22"/></pattern><linearGradient id="shade" x1="0" y1="0" x2="0" y2="1"><stop offset="0" stop-color="#ffffff" stop-opacity="0.06"/><stop offset="1" stop-color="#000000" stop-opacity="0.18"/></linearGradient><filter id="glow" x="-10%" y="-10%" width="120%" height="120%"><feGaussianBlur stdDeviation="3.5"/></filter></defs><rect x="7" y="7" width="406" height="806" rx="6" fill="none" stroke="#4f7bff" stroke-width="5" filter="url(#glow)"/><rect x="10" y="10" width="400" height="800" fill="#14258c"/><rect x="10" y="10" width="40" height="40" fill="#1a2fa0"/><rect x="90" y="10" width="40" height="40" fill="#1a2fa0"/><rect x="170" y="10" width="40" height="40" fill="#1a2fa0"/><rect x="250" y="10" width="40" height="40" fill="#1a2fa0"/><rect x="330" y="10" width="40" height="40" fill="#1a2fa0"/><rect x="50" y="50" width="40" height="40" fill="#1a2fa0"/><rect x="130" y="50" width="40" height="40" fill="#1a2fa0"/><rect x="210" y="50" width="40" height="40" fill="#1a2fa0"/><rect x="290" y="50" width="40" height="40" fill="#1a2fa0"/><rect x="370" y="50" width="40" height="40" fill="#1a2fa0"/><rect x="10" y="90" width="40" height="40" fill="#1a2fa0"/><rect x="90" y="90" width="40" height="40" fill="#1a2fa0"/><rect x="170" y="90" width="40" height="40" fill="#1a2fa0"/><rect x="250" y="90" width="40" height="40" fill="#1a2fa0"/><rect x="330" y="90" width="40" height="40" fill="#1a2fa0"/><rect x="50" y="130" width="40" height="40" fill="#1a2fa0"/><rect x="130" y="130" width="40" height="40" fill="#1a2fa0"/><rect x="210" y="130" width="40" height="40" fill="#1a2fa0"/><rect x="290" y="130" width="40" height="40" fill="#1a2fa0"/><rect x="370" y="130" width="40" height="40" fill="#1a2fa0"/><rect x="10" y="170" width="40" height="40" fill="#1a2fa0"/><rect x="90" y="170" width="40" height="40" fill="#1a2fa0"/><rect x="170" y="170" width="40" height="40" fill="#1a2fa0"/><rect x="250" y="170" width="40" height="40" fill="#1a2fa0"/><rect x="330" y="170" width="40" height="40" fill="#1a2fa0"/><rect x="50" y="210" width="40" height="40" fill="#1a2fa0"/><rect x="130" y="210" width="40" height="40" fill="#1a2fa0"/><rect x="210" y="210" width="40" height="40" fill="#1a2fa0"/><rect x="290" y="210" width="40" height="40" fill="#1a2fa0"/><rect x="370" y="210" width="40" height="40" fill="#1a2fa0"/><rect x="10" y="250" width="40" height="40" fill="#1a2fa0"/><rect x="90" y="250" width="40" height="40" fill="#1a2fa0"/><rect x="170" y="250" width="40" height="40" fill="#1a2fa0"/><rect x="250" y="250" width="40" height="40" fill="#1a2fa0"/><rect x="330" y="250" width="40" height="40" fill="#1a2fa0"/><rect x="50" y="290" width="40" height="40" fill="#1a2fa0"/><rect x="130" y="290" width="40" height="40" fill="#1a2fa0"/><rect x="210" y="290" width="40" height="40" fill="#1a2fa0"/><rect x="290" y="290" width="40" height="40" fill="#1a2fa0"/><rect x="370" y="290" width="40" height="40" fill="#1a2fa0"/><rect x="10" y="330" width="40" height="40" fill="#1a2fa0"/><rect x="90" y="330" width="40" height="40" fill="#1a2fa0"/><rect x="170" y="330" width="40" height="40" fill="#1a2fa0"/><rect x="250" y="330" width="40" height="40" fill="#1a2fa0"/><rect x="330" y="330" width="40" height="40" fill="#1a2fa0"/><rect x="50" y="370" width="40" height="40" fill="#1a2fa0"/><rect x="130" y="370" width="40" height="40" fill="#1a2fa0"/><rect x="210" y="370" width="40" height="40" fill="#1a2fa0"/><rect x="290" y="370" width="40" height="40" fill="#1a2fa0"/><rect x="370" y="370" width="40" height="40" fill="#1a2fa0"/><rect x="10" y="410" width="40" height="40" fill="#1a2fa0"/><rect x="90" y="410" width="40" height="40" fill="#1a2fa0"/><rect x="170" y="410" width="40" height="40" fill="#1a2fa0"/><rect x="250" y="410" width="40" height="40" fill="#1a2fa0"/><rect x="330" y="410" width="40" height="40" fill="#1a2fa0"/><rect x="50" y="450" width="40" height="40" fill="#1a2fa0"/><rect x="130" y="450" width="40" height="40" fill="#1a2fa0"/><rect x="210" y="450" width="40" height="40" fill="#1a2fa0"/><rect x="290" y="450" width="40" height="40" fill="#1a2fa0"/><rect x="370" y="450" width="40" height="40" fill="#1a2fa0"/><rect x="10" y="490" width="40" height="40" fill="#1a2fa0"/><rect x="90" y="490" width="40" height="40" fill="#1a2fa0"/><rect x="170" y="490" width="40" height="40" fill="#1a2fa0"/><rect x="250" y="490" width="40" height="40" fill="#1a2fa0"/><rect x="330" y="490" width="40" height="40" fill="#1a2fa0"/><rect x="50" y="530" width="40" height="40" fill="#1a2fa0"/><rect x="130" y="530" width="40" height="40" fill="#1a2fa0"/><rect x="210" y="530" width="40" height="40" fill="#1a2fa0"/><rect x="290" y="530" width="40" height="40" fill="#1a2fa0"/><rect x="370" y="530" width="40" height="40" fill="#1a2fa0"/><rect x="10" y="570" width="40" height="40" fill="#1a2fa0"/><rect x="90" y="570" width="40" height="40" fill="#1a2fa0"/><rect x="170" y="570" width="40" height="40" fill="#1a2fa0"/><rect x="250" y="570" width="40" height="40" fill="#1a2fa0"/><rect x="330" y="570" width="40" height="40" fill="#1a2fa0"/><rect x="50" y="610" width="40" height="40" fill="#1a2fa0"/><rect x="130" y="610" width="40" height="40" fill="#1a2fa0"/><rect x="210" y="610" width="40" height="40" fill="#1a2fa0"/><rect x="290" y="610" width="40" height="40" fill="#1a2fa0"/><rect x="370" y="610" width="40" height="40" fill="#1a2fa0"/><rect x="10" y="650" width="40" height="40" fill="#1a2fa0"/><rect x="90" y="650" width="40" height="40" fill="#1a2fa0"/><rect x="170" y="650" width="40" height="40" fill="#1a2fa0"/><rect x="250" y="650" width="40" height="40" fill="#1a2fa0"/><rect x="330" y="650" width="40" height="40" fill="#1a2fa0"/><rect x="50" y="690" width="40" height="40" fill="#1a2fa0"/><rect x="130" y="690" width="40" height="40" fill="#1a2fa0"/><rect x="210" y="690" width="40" height="40" fill="#1a2fa0"/><rect x="290" y="690" width="40" height="40" fill="#1a2fa0"/><rect x="370" y="690" width="40" height="40" fill="#1a2fa0"/><rect x="10" y="730" width="40" height="40" fill="#1a2fa0"/><rect x="90" y="730" width="40" height="40" fill="#1a2fa0"/><rect x="170" y="730" width="40" height="40" fill="#1a2fa0"/><rect x="250" y="730" width="40" height="40" fill="#1a2fa0"/><rect x="330" y="730" width="40" height="40" fill="#1a2fa0"/><rect x="50" y="770" width="40" height="40" fill="#1a2fa0"/><rect x="130" y="770" width="40" height="40" fill="#1a2fa0"/><rect x="210" y="770" width="40" height="40" fill="#1a2fa0"/><rect x="290" y="770" width="40" height="40" fill="#1a2fa0"/><rect x="370" y="770" width="40" height="40" fill="#1a2fa0"/><rect x="10" y="10" width="400" height="800" fill="url(#dots)"/><rect x="10" y="10" width="400" height="800" fill="url(#shade)"/><rect x="7" y="7" width="406" height="806" rx="5" fill="none" stroke="#2a44d8" stroke-width="5"/><rect x="8.5" y="8.5" width="403" height="803" rx="4" fill="none" stroke="#6f95ff" stroke-width="1.5"/></svg>
