<svg xmlns="http://www.w3.org/2000/svg" width="72" height="72" viewBox="0 0 72 72"><defs><linearGradient id="g-pink" x1="0" y1="0" x2="0" y2="1"><stop offset="0" stop-color="#ff8fa3"/><stop offset="0.55" stop-color="#ff4f6e"/><stop offset="1" stop-color="#ff4f6e"/></linearGradient><linearGradient id="g-orange" x1="0" y1="0" x2="0" y2="1"><stop offset="0" stop-color="#ffb347"/><stop offset="0.55" stop-color="#ff8a00"/><stop offset="1" stop-color="#ff8a00"/></linearGradient><linearGradient id="g-yellow" x1="0" y1="0" x2="0" y2="1"><stop offset="0" stop-color="#fff06a"/><stop offset="0.55" stop-color="#ffd000"/><stop offset="1" stop-color="#ffd000"/></linearGradient><linearGradient id="g-green" x1="0" y1="0" x2="0" y2="1"><stop offset="0" stop-color="#8af06a"/><stop offset="0.55" stop-color="#3cd62a"/><stop offset="1" stop-color="#3cd62a"/></linearGradient><linearGradient id="g-cyan" x1="0" y1="0" x2="0" y2="1"><stop offset="0" stop-color="#7fe3ff"/><stop offset="0.55" stop-color="#14b8f0"/><stop offset="1" stop-color="#14b8f0"/></linearGradient><linearGradient id="g-blue" x1="0" y1="0" x2="0" y2="1"><stop offset="0" stop-color="#9cb0ff"/><stop offset="0.55" stop-color="#5c7cff"/><stop offset="1" stop-color="#5c7cff"/></linearGradient><linearGradient id="g-purple" x1="0" y1="0" x2="0" y2="1"><stop offset="0" stop-color="#e29cff"/><stop offset="0.55" stop-color="#c055f0"/><stop offset="1" stop-color="#c055f0"/></linearGradient></defs><defs><mask id="hole"><rect width="72" height="72" fill="#ffffff"/><circle cx="36" cy="36" r="9" fill="#000000"/></mask></defs><g mask="url(#hole)" transform="translate(0 3)" fill="#050a30" opacity="0.6"><rect x="31" y="6" width="10" height="14" rx="2" transform="rotate(0 36 36)"/><rect x="31" y="6" width="10" height="14" rx="2" transform="rotate(45 36 36)"/><rect x="31" y="6" width="10" height="14" rx="2" transform="rotate(90 36 36)"/><rect x="31" y="6" width="10" height="14" rx="2" transform="rotate(135 36 36)"/><rect x="31" y="6" width="10" height="14" rx="2" transform="rotate(180 36 36)"/><rect x="31" y="6" width="10" height="14" rx="2" transform="rotate(225 36 36)"/><rect x="31" y="6" width="10" height="14" rx="2" transform="rotate(270 36 36)"/><rect x="31" y="6" width="10" height="14" rx="2" transform="rotate(315 36 36)"/><circle cx="36" cy="36" r="21"/></g><g mask="url(#hole)" fill="#ffffff"><rect x="31" y="6" width="10" height="14" rx="2" transform="rotate(0 36 36)"/><rect x="31" y="6" width="10" height="14" rx="2" transform="rotate(45 36 36)"/><rect x="31" y="6" width="10" height="14" rx="2" transform="rotate(90 36 36)"/><rect x="31" y="6" width="10" height="14" rx="2" transform="rotate(135 36 36)"/><rect x="31" y="6" width="10" height="14" rx="2" transform="rotate(180 36 36)"/><rect x="31" y="6" width="10" height="14" rx="2" transform="rotate(225 36 36)"/><rect x="31" y="6" width="10" height="14" rx="2" transform="rotate(270 36 36)"/><rect x="31" y="6" width="10" height="14" rx="2" transform="rotate(315 36 36)"/><circle cx="36" cy="36" r="21"/></g></svg>
